<svg xmlns="http://www.w3.org/2000/svg" viewBox="0 0 1200 900" fill="none">
  <rect width="1200" height="900" rx="28" fill="#102218"/>
  <rect x="42" y="42" width="1116" height="816" rx="20" fill="#163126"/>
  <path d="M60 250C180 155 332 124 454 138C558 149 641 218 759 233C899 250 1012 203 1140 120V820H60V250Z" fill="url(#rock)"/>
  <path d="M60 270C177 188 314 171 430 187C526 201 626 261 742 279C886 301 1013 255 1140 181" stroke="#436B58" stroke-width="5" stroke-linecap="round" stroke-dasharray="12 16"/>
  <path d="M115 305C210 232 322 212 412 224C516 238 607 301 722 320C864 344 977 307 1075 237" stroke="#BFE4D2" stroke-opacity=".42" stroke-width="22" stroke-linecap="round"/>
  <path d="M140 350C214 287 308 268 383 279C479 292 586 352 700 371C832 394 943 362 1035 303" stroke="#F3E7B6" stroke-opacity=".28" stroke-width="56" stroke-linecap="round"/>
  <circle cx="247" cy="431" r="16" fill="#E4F6EE"/>
  <circle cx="247" cy="431" r="34" stroke="#E4F6EE" stroke-opacity=".22" stroke-width="2"/>
  <circle cx="471" cy="476" r="16" fill="#B6E0CC"/>
  <circle cx="471" cy="476" r="34" stroke="#B6E0CC" stroke-opacity=".22" stroke-width="2"/>
  <circle cx="738" cy="522" r="16" fill="#7FB498"/>
  <circle cx="738" cy="522" r="34" stroke="#7FB498" stroke-opacity=".22" stroke-width="2"/>
  <circle cx="964" cy="584" r="16" fill="#486758"/>
  <circle cx="964" cy="584" r="34" stroke="#486758" stroke-opacity=".22" stroke-width="2"/>
  <path d="M247 465V700M471 510V700M738 556V700M964 618V700" stroke="#A8C8B8" stroke-opacity=".4" stroke-width="2" stroke-dasharray="8 10"/>
  <rect x="150" y="695" width="190" height="88" rx="14" fill="#0E1B14" fill-opacity=".72" stroke="#436B58"/>
  <rect x="374" y="695" width="190" height="88" rx="14" fill="#0E1B14" fill-opacity=".72" stroke="#436B58"/>
  <rect x="641" y="695" width="190" height="88" rx="14" fill="#0E1B14" fill-opacity=".72" stroke="#436B58"/>
  <rect x="867" y="695" width="190" height="88" rx="14" fill="#0E1B14" fill-opacity=".72" stroke="#436B58"/>
  <text x="175" y="730" fill="#F4EEE2" font-family="IBM Plex Sans, Arial, sans-serif" font-size="20" letter-spacing=".2em">ENTRANCE</text>
  <text x="399" y="730" fill="#F4EEE2" font-family="IBM Plex Sans, Arial, sans-serif" font-size="20" letter-spacing=".2em">TRANSITION</text>
  <text x="666" y="730" fill="#F4EEE2" font-family="IBM Plex Sans, Arial, sans-serif" font-size="20" letter-spacing=".2em">TWILIGHT</text>
  <text x="892" y="730" fill="#F4EEE2" font-family="IBM Plex Sans, Arial, sans-serif" font-size="20" letter-spacing=".2em">DARK ZONE</text>
  <text x="175" y="761" fill="#A4B8AD" font-family="IBM Plex Sans, Arial, sans-serif" font-size="18">light and surface influence</text>
  <text x="399" y="761" fill="#A4B8AD" font-family="IBM Plex Sans, Arial, sans-serif" font-size="18">declining luminosity</text>
  <text x="666" y="761" fill="#A4B8AD" font-family="IBM Plex Sans, Arial, sans-serif" font-size="18">reduced inputs</text>
  <text x="892" y="761" fill="#A4B8AD" font-family="IBM Plex Sans, Arial, sans-serif" font-size="18">oligotrophic constraint</text>
  <defs>
    <linearGradient id="rock" x1="230" y1="170" x2="902" y2="817" gradientUnits="userSpaceOnUse">
      <stop stop-color="#476A55"/>
      <stop offset=".28" stop-color="#334839"/>
      <stop offset=".74" stop-color="#1D2B23"/>
      <stop offset="1" stop-color="#131A16"/>
    </linearGradient>
  </defs>
</svg>
