<svg xmlns="http://www.w3.org/2000/svg" viewBox="0 0 1200 900" fill="none">
  <rect width="1200" height="900" rx="28" fill="#F1F4F6"/>
  <rect x="52" y="52" width="1096" height="796" rx="22" fill="#E5ECF1"/>
  <circle cx="606" cy="454" r="265" fill="#FFFFFF" stroke="#9AAEBB" stroke-width="4"/>
  <circle cx="606" cy="454" r="198" stroke="#CCD8E0" stroke-width="2" stroke-dasharray="10 14"/>
  <path d="M435 404C470 355 512 337 560 352C604 366 614 415 653 429C691 442 739 429 780 381" stroke="#35576B" stroke-width="28" stroke-linecap="round"/>
  <path d="M430 523C460 491 503 485 549 506C592 526 622 579 685 570C729 564 760 537 783 500" stroke="#406A7F" stroke-width="28" stroke-linecap="round"/>
  <path d="M500 309C534 286 567 283 598 302C629 322 646 357 688 358C719 358 746 347 770 322" stroke="#6B8796" stroke-width="20" stroke-linecap="round" stroke-dasharray="1 24"/>
  <path d="M446 404C477 371 517 365 550 379C584 393 606 421 637 428" stroke="#C9E2EA" stroke-width="5" stroke-linecap="round" stroke-dasharray="2 12"/>
  <path d="M446 523C473 503 511 503 546 521C581 539 607 560 647 562" stroke="#C9E2EA" stroke-width="5" stroke-linecap="round" stroke-dasharray="2 12"/>
  <circle cx="606" cy="454" r="62" fill="#DDE8EE"/>
  <circle cx="606" cy="454" r="46" stroke="#90A7B4" stroke-width="2"/>
  <rect x="146" y="174" width="252" height="114" rx="18" fill="#FFFFFF" stroke="#9AAEBB"/>
  <rect x="802" y="620" width="252" height="114" rx="18" fill="#FFFFFF" stroke="#9AAEBB"/>
  <rect x="180" y="640" width="252" height="114" rx="18" fill="#FFFFFF" stroke="#9AAEBB"/>
  <text x="176" y="214" fill="#2E4F62" font-family="IBM Plex Sans, Arial, sans-serif" font-size="18" letter-spacing=".16em">CARBON REGIMES</text>
  <text x="176" y="250" fill="#4E6673" font-family="IBM Plex Sans, Arial, sans-serif" font-size="20">physiology shifts with nutrient</text>
  <text x="176" y="278" fill="#4E6673" font-family="IBM Plex Sans, Arial, sans-serif" font-size="20">and energy availability</text>
  <text x="836" y="660" fill="#2E4F62" font-family="IBM Plex Sans, Arial, sans-serif" font-size="18" letter-spacing=".16em">PROTEOME ALLOCATION</text>
  <text x="836" y="696" fill="#4E6673" font-family="IBM Plex Sans, Arial, sans-serif" font-size="20">how resources move toward</text>
  <text x="836" y="724" fill="#4E6673" font-family="IBM Plex Sans, Arial, sans-serif" font-size="20">mitochondrial function</text>
  <text x="214" y="680" fill="#2E4F62" font-family="IBM Plex Sans, Arial, sans-serif" font-size="18" letter-spacing=".16em">CELLULAR ORGANIZATION</text>
  <text x="214" y="716" fill="#4E6673" font-family="IBM Plex Sans, Arial, sans-serif" font-size="20">yeast as a model for constraint,</text>
  <text x="214" y="744" fill="#4E6673" font-family="IBM Plex Sans, Arial, sans-serif" font-size="20">allocation, and adaptation</text>
  <path d="M399 232C477 274 529 304 579 342" stroke="#9AAEBB" stroke-width="3" stroke-dasharray="8 10"/>
  <path d="M802 677C735 639 707 607 672 569" stroke="#9AAEBB" stroke-width="3" stroke-dasharray="8 10"/>
  <path d="M432 689C497 649 523 619 551 579" stroke="#9AAEBB" stroke-width="3" stroke-dasharray="8 10"/>
</svg>
